<?xml version="1.0" standalone="no"?>
<!DOCTYPE svg PUBLIC "-//W3C//DTD SVG 20010904//EN"
 "http://www.w3.org/TR/2001/REC-SVG-20010904/DTD/svg10.dtd">
<svg version="1.0" xmlns="http://www.w3.org/2000/svg"
 width="2000.000000pt" height="2000.000000pt" viewBox="0 0 2000.000000 1500.000000"
 preserveAspectRatio="xMidYMid meet">

<g transform="translate(0.000000,1500.000000) scale(0.100000,-0.100000)"
fill="#2563eb" stroke="none">
<path d="M6040 7505 l0 -4675 4675 0 4675 0 0 775 0 775 -260 0 -260 0 0 -515
0 -515 -4155 0 -4155 0 0 4155 0 4155 4155 0 4155 0 0 -515 0 -515 260 0 260
0 0 775 0 775 -4675 0 -4675 0 0 -4675z"/>
<path d="M10905 10376 c-115 -28 -186 -82 -229 -175 l-21 -46 -5 -2215 c-5
-2119 -6 -2217 -23 -2270 -67 -198 -173 -293 -360 -320 -116 -17 -543 -8 -615
13 -109 32 -191 101 -245 210 -54 106 -59 138 -66 477 -7 345 -8 352 -71 424
-41 46 -109 81 -197 102 -85 20 -283 14 -359 -10 -102 -32 -178 -105 -207
-200 -17 -56 -16 -677 1 -799 38 -264 148 -477 321 -623 143 -120 375 -241
566 -295 77 -22 96 -23 563 -27 533 -3 569 -1 740 59 103 36 260 116 362 185
240 160 373 371 427 674 17 100 18 212 18 2345 0 2124 -1 2243 -18 2291 -35
101 -118 170 -237 198 -78 19 -273 20 -345 2z"/>
</g>
</svg>
