<?xml version="1.0" standalone="no"?>
<!DOCTYPE svg PUBLIC "-//W3C//DTD SVG 20010904//EN"
 "http://www.w3.org/TR/2001/REC-SVG-20010904/DTD/svg10.dtd">
<svg version="1.0" xmlns="http://www.w3.org/2000/svg"
 width="300.000000pt" height="300.000000pt" viewBox="0 0 300.000000 300.000000"
 preserveAspectRatio="xMidYMid meet">

<g transform="translate(0.000000,300.000000) scale(0.10000,-0.100000)"
fill="#000000" stroke="none">
<path d="M342 2589 c-153 -30 -287 -158 -328 -313 -20 -75 -20 -1477 0 -1552
42 -160 175 -283 336 -314 72 -14 2228 -14 2300 0 161 31 294 154 336 314 20
75 20 1477 0 1552 -42 160 -175 283 -336 314 -65 12 -2245 12 -2308 -1z m2310
-181 c51 -15 126 -82 149 -133 17 -38 19 -83 19 -775 0 -692 -2 -737 -19 -775
-23 -51 -98 -118 -149 -133 -56 -17 -2248 -17 -2304 0 -51 15 -126 82 -149
133 -17 38 -19 83 -19 775 0 692 2 737 19 775 22 48 97 118 143 132 49 16
2257 17 2310 1z"/>
<path d="M1694 2236 c-38 -17 -8 60 -293 -748 -121 -344 -221 -638 -221 -652
0 -69 96 -106 144 -55 16 16 97 232 260 695 130 368 236 676 236 683 0 28 -31
70 -61 80 -18 6 -32 11 -33 11 -1 -1 -15 -7 -32 -14z"/>
<path d="M718 1803 c-147 -147 -272 -279 -279 -295 -6 -15 -8 -40 -5 -55 5
-18 93 -113 255 -276 235 -234 249 -247 285 -247 51 0 86 35 86 87 0 36 -10
48 -210 248 l-210 210 235 235 c223 224 235 238 235 273 0 52 -35 87 -87 87
-35 0 -50 -13 -305 -267z"/>
<path d="M1965 2045 c-18 -17 -25 -35 -25 -62 0 -36 10 -48 210 -248 l210
-210 -235 -235 c-223 -224 -235 -238 -235 -273 0 -51 35 -87 86 -87 36 0 51
14 305 266 147 147 273 280 280 295 6 16 8 41 5 56 -5 18 -93 113 -255 276
-235 234 -249 247 -285 247 -26 0 -44 -7 -61 -25z"/>
</g>
</svg>
