<?xml version="1.0" standalone="no"?>
<!DOCTYPE svg PUBLIC "-//W3C//DTD SVG 20010904//EN"
 "http://www.w3.org/TR/2001/REC-SVG-20010904/DTD/svg10.dtd">
<svg version="1.0" xmlns="http://www.w3.org/2000/svg"
 width="300.000000pt" height="300.000000pt" viewBox="0 0 300.000000 300.000000"
 preserveAspectRatio="xMidYMid meet">

<g transform="translate(0.000000,300.000000) scale(0.100000,-0.100000)"
fill="#FCFCFC" stroke="none">
<path d="M710 2789 c-12 -21 -8 -92 11 -224 24 -164 84 -317 155 -395 20 -22
66 -54 102 -72 61 -30 74 -33 157 -32 55 0 113 7 149 18 l59 17 53 -52 54 -53
0 -133 0 -133 -90 0 -90 0 0 73 c0 82 -16 117 -55 117 -34 0 -45 -27 -45 -113
l0 -75 -57 -4 c-52 -5 -60 -9 -94 -46 l-37 -42 -154 0 -154 0 -68 69 c-67 68
-68 70 -57 102 61 176 -139 327 -289 218 -87 -63 -103 -181 -37 -272 43 -57
156 -85 222 -55 25 11 30 7 108 -70 l82 -82 173 0 172 0 0 -50 0 -50 -78 0
c-82 0 -102 -9 -102 -45 0 -36 20 -45 102 -45 l78 0 0 -45 0 -45 -145 0 c-121
0 -145 2 -145 15 0 19 -57 83 -89 99 -71 37 -147 27 -208 -27 -65 -57 -81
-143 -42 -225 32 -64 86 -97 164 -97 52 0 68 5 103 29 23 16 49 45 59 67 l18
38 143 1 142 0 0 -45 0 -45 -71 0 c-80 0 -109 -11 -109 -43 0 -44 15 -52 100
-55 l80 -4 0 -44 0 -44 -172 0 -173 0 -81 -81 -82 -81 -49 12 c-59 15 -108 8
-154 -23 -128 -86 -107 -278 36 -333 152 -58 298 90 244 246 -12 33 -11 34 58
101 l71 69 153 0 154 0 29 -36 c31 -40 79 -64 126 -64 l30 0 0 -71 c0 -86 11
-109 51 -109 37 0 49 27 49 116 l0 64 90 0 90 0 0 -74 c0 -69 -1 -74 -24 -80
-35 -9 -93 -79 -106 -127 -31 -114 59 -229 180 -229 121 0 211 115 180 229
-13 48 -71 118 -106 127 -23 6 -24 11 -24 80 l0 74 90 0 90 0 0 -64 c0 -89 12
-116 49 -116 40 0 51 23 51 109 l0 71 30 0 c47 0 95 24 126 64 l29 36 155 0
156 0 68 -69 c67 -68 68 -70 57 -102 -40 -116 35 -237 154 -247 71 -6 97 2
140 40 49 42 65 77 65 138 0 129 -100 209 -228 182 l-57 -12 -80 80 -80 80
-173 0 -172 0 0 44 0 44 80 4 c85 3 100 11 100 55 0 32 -29 43 -109 43 l-71 0
0 45 0 45 143 0 142 -1 19 -40 c28 -61 84 -94 161 -94 52 0 68 5 103 29 72 49
102 150 68 229 -7 18 -29 47 -49 64 -61 54 -137 64 -208 27 -32 -16 -89 -80
-89 -99 0 -13 -24 -15 -145 -15 l-145 0 0 45 0 45 78 0 c82 0 102 9 102 45 0
36 -20 45 -102 45 l-78 0 0 50 0 50 172 0 173 0 81 81 c81 81 82 82 115 70 77
-27 154 -7 206 52 78 89 61 219 -36 282 -73 48 -161 41 -228 -18 -59 -52 -79
-129 -52 -206 11 -32 10 -34 -57 -102 l-68 -69 -154 0 -154 0 -37 42 c-34 37
-42 41 -94 46 l-57 4 0 75 c0 86 -11 113 -45 113 -39 0 -55 -35 -55 -117 l0
-73 -90 0 -90 0 0 133 0 133 54 53 53 52 59 -17 c37 -12 92 -18 149 -19 82 0
96 3 157 33 36 18 82 50 102 72 89 99 149 283 171 527 9 103 2 113 -84 113
-83 0 -275 -32 -351 -58 -142 -50 -231 -117 -277 -211 -26 -52 -28 -65 -27
-171 0 -83 5 -127 17 -160 l18 -44 -46 -45 -45 -46 -45 46 -46 45 18 44 c12
33 17 77 17 160 1 107 -1 119 -27 172 -45 92 -137 161 -277 210 -76 26 -268
58 -351 58 -59 0 -70 -3 -79 -21z m299 -99 c99 -20 215 -69 268 -114 54 -46
78 -109 76 -201 -1 -44 -5 -93 -10 -109 l-9 -29 -126 121 c-153 146 -169 157
-197 142 -13 -7 -21 -21 -21 -38 0 -22 25 -51 134 -152 74 -69 135 -128 135
-131 2 -10 -57 -19 -128 -19 -117 0 -198 57 -253 178 -28 63 -66 219 -74 307
l-7 77 59 -7 c32 -4 101 -15 153 -25z m1187 -46 c-8 -86 -45 -238 -74 -304
-56 -127 -135 -181 -261 -179 -142 2 -142 -3 12 144 132 125 150 150 129 181
-4 6 -15 13 -24 17 -21 8 -46 -12 -197 -156 -129 -123 -125 -123 -137 -4 -9
87 14 164 65 217 73 77 264 141 475 158 17 2 18 -3 12 -74z m-1777 -689 c74
-38 58 -150 -24 -171 -52 -13 -116 38 -115 93 1 43 50 92 93 93 10 0 31 -7 46
-15z m2250 0 c102 -52 26 -209 -80 -165 -31 13 -59 55 -59 87 1 43 50 92 93
93 10 0 31 -7 46 -15z m-761 -327 c17 -17 17 -799 0 -816 -17 -17 -799 -17
-816 0 -17 17 -17 799 0 816 17 17 799 17 816 0z m-1327 -347 c37 -37 38 -79
3 -120 -21 -26 -33 -31 -68 -31 -57 0 -91 34 -91 92 0 82 96 118 156 59z
m1966 5 c37 -32 39 -93 4 -130 -37 -39 -100 -37 -135 5 -35 41 -34 83 3 120
38 37 88 39 128 5z m-2103 -668 c24 -26 27 -37 22 -67 -16 -106 -165 -107
-182 -1 -4 27 -1 42 16 63 44 55 96 57 144 5z m2250 0 c24 -26 27 -37 22 -67
-16 -106 -165 -107 -182 -1 -4 27 -1 42 16 63 44 55 96 57 144 5z m-1133 -177
c21 -22 29 -39 29 -66 0 -48 -44 -95 -90 -95 -46 0 -90 47 -90 95 0 48 44 95
90 95 22 0 41 -9 61 -29z"/>
<path d="M1295 1425 c-25 -24 -25 -27 -25 -200 0 -107 4 -184 11 -197 20 -38
69 -48 224 -48 132 0 147 2 165 20 25 25 25 42 2 63 -16 14 -43 17 -165 17
l-147 0 0 140 0 140 140 0 140 0 0 -78 c0 -66 3 -82 20 -97 17 -15 24 -16 45
-7 24 11 25 14 25 117 0 99 -2 107 -25 130 -24 25 -26 25 -205 25 -179 0 -181
0 -205 -25z"/>
</g>
</svg>
